<svg width="35" height="29" viewBox="0 0 35 29" fill="none" xmlns="http://www.w3.org/2000/svg">
<path d="M31.4024 7.08438C31.4246 7.39528 31.4246 7.70625 31.4246 8.01715C31.4246 17.5 24.207 28.4265 11.0153 28.4265C6.95115 28.4265 3.17578 27.2494 0 25.2063C0.577434 25.2729 1.13258 25.2951 1.73223 25.2951C5.08562 25.2951 8.1726 24.1625 10.6377 22.2304C7.48415 22.1638 4.84137 20.0984 3.93082 17.2558C4.37502 17.3223 4.81915 17.3668 5.28557 17.3668C5.92958 17.3668 6.57367 17.2779 7.17325 17.1225C3.88645 16.4562 1.42127 13.5692 1.42127 10.0825V9.9937C2.37618 10.5267 3.48668 10.8598 4.66363 10.9042C2.73151 9.61608 1.4657 7.4175 1.4657 4.93017C1.4657 3.5977 1.82096 2.37625 2.44283 1.31025C5.97395 5.66305 11.2817 8.50565 17.2335 8.81662C17.1224 8.28362 17.0558 7.72847 17.0558 7.17325C17.0558 3.22015 20.2538 0 24.229 0C26.2944 0 28.1599 0.866117 29.4702 2.26523C31.0913 1.95433 32.6459 1.35468 34.0229 0.533C33.4898 2.19865 32.3572 3.59777 30.8693 4.48603C32.3129 4.33065 33.712 3.93082 35 3.37567C34.023 4.79693 32.8015 6.06275 31.4024 7.08438Z" fill="white"/>
</svg>
